<svg xmlns="http://www.w3.org/2000/svg" viewBox="233.4 413.4 157 52" fill="currentColor"><path d="M 262.27 445.31 C 259.1 448.52 255.93 451.73 252.75 454.94 C 250.5 457.21 249.9 459.93 251.14 462.66 C 251.43 463.34 251.95 463.91 252.3 464.45 C 249.86 463.44 247.62 460.55 248.71 457.41 C 249.24 455.89 250.18 454.65 251.29 453.51 C 253.99 450.78 256.68 448.05 259.38 445.31 Z M 279.05 414.17 C 281.93 416.46 282.95 420.22 281.68 423.62 C 280.76 426.12 279.12 428.14 277.29 430.01 C 276.53 430.79 275.77 431.57 275 432.35 C 274.46 432.21 273.89 432.13 273.31 432.12 L 272.35 432.12 C 273.5 430.96 274.64 429.79 275.77 428.62 C 276.91 427.46 277.99 426.19 278.86 424.82 C 280.94 421.54 280.96 418.09 279.28 414.62 C 279.23 414.53 279.19 414.44 279.05 414.17 M 267.97 445.31 L 267.43 445.87 C 267.26 446.04 267.04 446.16 266.84 446.29 C 266.89 446.37 266.94 446.43 266.98 446.5 C 267.21 446.51 267.42 446.53 267.65 446.53 C 270.7 446.53 273.75 446.52 276.8 446.53 C 281.51 446.55 285.17 449.66 285.96 454.33 C 286.79 459.21 283.18 464.1 278.29 464.71 C 277.76 464.78 277.21 464.81 276.67 464.81 C 270.37 464.82 264.07 464.82 257.78 464.81 C 255.83 464.81 254.23 464.09 253.36 462.27 C 252.45 460.36 252.49 458.42 253.95 456.79 C 255.64 454.9 257.45 453.12 259.22 451.3 C 261.19 449.3 263.14 447.31 265.1 445.31 Z M 282.55 414.16 C 285.01 416.35 286.12 419.02 285.87 422.39 C 285.61 425.85 284.25 428.69 281.87 431.11 C 280.71 432.29 279.57 433.46 278.41 434.64 C 278 434.11 277.5 433.64 276.94 433.25 L 280.09 430.05 C 282.12 427.98 283.56 425.61 283.98 422.68 C 284.32 420.2 283.99 417.81 283.09 415.49 C 282.91 415.05 282.73 414.61 282.55 414.16 M 262.9 450.42 C 262.93 450.48 262.96 450.53 262.99 450.59 C 263.2 450.59 263.43 450.58 263.64 450.59 C 268.09 450.59 272.55 450.58 277 450.59 C 279.77 450.61 281.98 452.86 282 455.62 C 282.01 458.53 279.77 460.76 276.8 460.76 L 254.98 460.76 C 255.04 460.97 255.05 461.12 255.11 461.25 C 255.61 462.32 256.52 462.79 257.64 462.79 C 264.12 462.8 270.61 462.83 277.09 462.78 C 281.01 462.75 284.05 459.54 284.03 455.62 C 284.01 451.75 280.88 448.58 276.99 448.55 C 273.08 448.53 269.17 448.55 265.26 448.55 C 265.07 448.55 264.84 448.55 264.73 448.66 C 264.1 449.22 263.51 449.83 262.9 450.42 M 254.98 458.66 C 255.39 458.68 255.57 458.7 255.75 458.7 C 262.77 458.7 269.8 458.71 276.83 458.7 C 278.63 458.7 280 457.38 280 455.66 C 279.99 453.95 278.62 452.61 276.82 452.61 C 271.62 452.6 266.44 452.61 261.26 452.61 C 261.08 452.61 260.84 452.62 260.72 452.72 C 260.08 453.28 259.47 453.86 258.85 454.44 C 258.89 454.5 258.94 454.57 258.98 454.65 L 276.46 454.65 C 276.67 454.65 276.89 454.63 277.08 454.66 C 277.62 454.75 278.02 455.21 277.96 455.72 C 277.91 456.27 277.6 456.61 277.04 456.66 C 276.82 456.68 276.58 456.68 276.35 456.68 L 257.47 456.68 C 257.21 456.68 256.88 456.63 256.74 456.77 C 256.17 457.32 255.64 457.94 254.98 458.66 M 239.2 464.23 C 235.27 461.14 233.88 455.29 236.95 451.16 C 237.8 450.04 238.75 449 239.73 447.99 C 244.69 442.92 249.66 437.87 254.62 432.81 C 254.77 432.68 254.89 432.52 255.13 432.25 L 254.32 432.25 C 250.95 432.25 247.59 432.26 244.22 432.25 C 239.63 432.23 235.96 429.12 235.15 424.57 C 234.18 419.16 238.41 413.99 243.89 413.97 C 250.73 413.95 257.57 413.97 264.41 413.99 C 268.13 414 270.41 418.09 268.48 421.29 C 268.03 422.04 267.41 422.69 266.8 423.32 C 258 432.29 249.2 441.24 240.39 450.21 C 238.22 452.44 237 455.09 237.19 458.27 C 237.3 460.18 237.94 461.92 238.84 463.58 C 238.97 463.79 239.09 464.01 239.2 464.23 M 259.1 428.41 C 259.05 428.33 259.02 428.26 258.97 428.18 L 258.24 428.18 C 253.58 428.18 248.91 428.2 244.25 428.18 C 240.83 428.16 238.45 425.16 239.22 421.88 C 239.75 419.62 241.77 418.02 244.18 418.02 C 251.52 418.02 258.86 418.02 266.2 418.02 L 266.96 418.02 C 266.93 417.86 266.92 417.76 266.89 417.69 C 266.5 416.6 265.5 415.98 264.1 415.98 L 244.09 415.98 C 243.84 415.98 243.59 415.98 243.33 416.02 C 239.49 416.51 236.86 419.71 237.06 423.61 C 237.26 427.23 240.36 430.17 244.11 430.21 C 248.32 430.25 252.52 430.23 256.72 430.21 C 256.94 430.21 257.2 430.15 257.35 430.02 C 257.95 429.5 258.52 428.95 259.1 428.41 M 266.84 420.23 C 266.8 420.17 266.77 420.11 266.73 420.04 L 249.88 420.04 C 247.97 420.04 246.07 420.02 244.16 420.04 C 242.11 420.07 240.69 421.93 241.2 423.87 C 241.54 425.19 242.7 426.12 244.11 426.12 C 249.71 426.16 255.32 426.17 260.92 426.18 C 261.03 426.18 261.18 426.13 261.26 426.06 C 261.88 425.48 262.48 424.89 263.09 424.3 C 263.07 424.23 263.03 424.17 263 424.11 L 262.28 424.11 C 256.46 424.11 250.65 424.1 244.83 424.1 C 244.55 424.1 244.29 424.11 244.02 424.08 C 243.48 424.04 243.18 423.7 243.13 423.18 C 243.07 422.69 243.32 422.32 243.78 422.16 C 243.97 422.09 244.2 422.08 244.4 422.08 C 251.22 422.08 258.04 422.09 264.86 422.1 C 264.98 422.1 265.18 422.08 265.25 422 C 265.79 421.42 266.31 420.83 266.84 420.23"/><path d="M 247.73 464.61 C 244.41 462.46 243.23 458.53 244.96 455.19 C 245.6 453.95 246.5 452.77 247.47 451.76 C 256 443 264.57 434.28 273.12 425.54 C 273.56 425.1 273.96 424.61 274.37 424.12 C 276.76 421.29 277.07 418.19 275.52 414.85 C 275.42 414.64 275.33 414.44 275.2 414.18 C 278.38 416.84 278.95 420.04 277.63 422.82 C 276.94 424.28 275.95 425.53 274.84 426.68 C 268.79 432.9 262.73 439.13 256.67 445.34 C 254.08 448 251.48 450.65 248.83 453.24 C 245.43 456.55 245.76 461.1 247.39 464.03 C 247.47 464.17 247.55 464.32 247.73 464.61 M 270.84 414.25 C 273.56 415.79 274.7 419.29 273.3 421.96 C 272.79 422.93 272.13 423.87 271.37 424.66 C 262.84 433.31 254.29 441.93 245.74 450.55 C 244.36 451.95 243.09 453.43 242.37 455.3 C 241.28 458.11 241.31 460.92 242.5 463.7 C 242.62 463.96 242.71 464.24 242.78 464.52 C 240.79 462.61 239.6 460.35 239.78 457.51 C 239.96 454.59 241.35 452.21 243.32 450.18 C 246.16 447.21 249.1 444.33 251.98 441.41 C 257.91 435.41 263.85 429.41 269.75 423.41 C 270.34 422.81 270.85 422.12 271.29 421.42 C 272.46 419.65 272.55 417.76 271.66 415.84 C 271.42 415.32 271.13 414.82 270.84 414.25 M 273.07 437.68 C 273.18 437.68 273.29 437.69 273.38 437.7 C 273.92 437.79 274.3 438.25 274.26 438.76 C 274.21 439.31 273.9 439.65 273.34 439.7 C 273.2 439.71 273.05 439.71 272.91 439.71 L 265.23 439.71 L 267.16 437.69 L 272.75 437.69 C 272.86 437.69 272.97 437.68 273.07 437.68 M 271.04 433.63 L 273.3 433.63 C 276.06 433.64 278.29 435.89 278.29 438.66 C 278.31 441.57 276.07 443.79 273.09 443.8 L 261.32 443.8 L 263.28 441.74 L 273.12 441.74 C 274.93 441.74 276.3 440.42 276.3 438.7 C 276.29 436.99 274.91 435.65 273.11 435.65 L 269.12 435.65 Z M 271.04 433.63"/><path d="M 352.57 460.62 C 352.86 460.62 353.1 460.72 353.29 460.91 C 353.47 461.1 353.57 461.34 353.57 461.61 C 353.57 461.89 353.47 462.14 353.29 462.32 C 353.1 462.52 352.86 462.62 352.57 462.62 C 352.29 462.62 352.06 462.52 351.87 462.32 C 351.68 462.14 351.58 461.89 351.58 461.61 C 351.58 461.34 351.68 461.1 351.87 460.91 C 352.06 460.72 352.29 460.62 352.57 460.62 M 346.32 461.57 C 346.73 461.57 347.07 461.48 347.36 461.29 C 347.64 461.11 347.92 460.82 348.19 460.45 L 348.19 456.74 C 347.93 456.41 347.68 456.16 347.39 455.99 C 347.11 455.83 346.8 455.74 346.44 455.74 C 345.86 455.74 345.41 455.98 345.09 456.48 C 344.77 456.96 344.61 457.7 344.61 458.67 C 344.61 459.64 344.75 460.37 345.05 460.86 C 345.34 461.34 345.77 461.57 346.32 461.57 M 349.5 451.81 L 349.5 462.45 L 348.35 462.45 L 348.21 461.4 C 347.97 461.79 347.66 462.08 347.28 462.3 C 346.91 462.52 346.5 462.62 346.04 462.62 C 345.14 462.62 344.44 462.27 343.94 461.56 C 343.44 460.85 343.2 459.89 343.2 458.7 C 343.2 457.92 343.31 457.23 343.54 456.62 C 343.79 456.02 344.12 455.54 344.58 455.2 C 345.03 454.86 345.55 454.69 346.15 454.69 C 346.93 454.69 347.6 455 348.19 455.63 L 348.19 451.66 Z M 342.51 462.11 C 342.02 462.45 341.46 462.62 340.83 462.62 C 340.18 462.62 339.69 462.44 339.33 462.07 C 338.97 461.7 338.79 461.16 338.79 460.46 L 338.79 455.88 L 337.48 455.88 L 337.48 454.86 L 338.79 454.86 L 338.79 453.15 L 340.11 452.99 L 340.11 454.86 L 341.9 454.86 L 341.76 455.88 L 340.11 455.88 L 340.11 460.41 C 340.11 460.8 340.18 461.08 340.32 461.26 C 340.45 461.44 340.68 461.53 341.02 461.53 C 341.31 461.53 341.64 461.43 342.01 461.23 Z M 333.36 452.53 L 333.36 461.25 L 337.41 461.25 L 337.24 462.45 L 331.99 462.45 L 331.99 452.53 Z M 323.52 450.29 C 324.16 451.19 324.64 451.93 324.98 452.51 C 325.32 453.09 325.6 453.78 325.84 454.59 C 326.08 455.41 326.2 456.34 326.2 457.41 C 326.2 458.48 326.08 459.41 325.84 460.23 C 325.6 461.04 325.32 461.73 324.98 462.32 C 324.64 462.89 324.16 463.63 323.52 464.54 L 322.7 463.96 C 323.19 463.23 323.59 462.58 323.88 461.98 C 324.17 461.39 324.4 460.73 324.56 459.99 C 324.73 459.25 324.81 458.39 324.81 457.41 C 324.81 456.42 324.73 455.56 324.56 454.82 C 324.4 454.08 324.17 453.42 323.88 452.84 C 323.59 452.26 323.19 451.6 322.7 450.86 Z M 320.39 460.62 C 320.67 460.62 320.91 460.72 321.1 460.91 C 321.3 461.1 321.39 461.34 321.39 461.61 C 321.39 461.89 321.3 462.14 321.1 462.32 C 320.91 462.52 320.67 462.62 320.39 462.62 C 320.11 462.62 319.88 462.52 319.69 462.32 C 319.5 462.14 319.4 461.89 319.4 461.61 C 319.4 461.34 319.5 461.1 319.69 460.91 C 319.88 460.72 320.11 460.62 320.39 460.62 M 318.63 462.11 C 318.13 462.45 317.57 462.62 316.94 462.62 C 316.3 462.62 315.8 462.44 315.44 462.07 C 315.08 461.7 314.9 461.16 314.9 460.46 L 314.9 455.88 L 313.59 455.88 L 313.59 454.86 L 314.9 454.86 L 314.9 453.15 L 316.22 452.99 L 316.22 454.86 L 318.01 454.86 L 317.87 455.88 L 316.22 455.88 L 316.22 460.41 C 316.22 460.8 316.29 461.08 316.43 461.26 C 316.57 461.44 316.8 461.53 317.12 461.53 C 317.42 461.53 317.75 461.43 318.13 461.23 Z M 313.32 454.86 L 310.75 462.45 L 309.16 462.45 L 306.56 454.86 L 307.98 454.86 L 309.96 461.27 L 311.93 454.86 Z M 302.14 457.73 C 302.94 457.73 303.54 457.58 303.96 457.27 C 304.37 456.96 304.58 456.41 304.58 455.61 C 304.58 454.9 304.37 454.39 303.96 454.07 C 303.54 453.75 302.95 453.59 302.18 453.59 L 300.96 453.59 L 300.96 457.73 Z M 302.18 452.53 C 303.41 452.53 304.36 452.78 305.03 453.3 C 305.69 453.81 306.02 454.57 306.02 455.59 C 306.02 456.68 305.68 457.49 304.98 458.02 C 304.28 458.54 303.36 458.81 302.2 458.81 L 300.96 458.81 L 300.96 462.45 L 299.59 462.45 L 299.59 452.53 Z M 297.59 450.86 C 297.09 451.6 296.7 452.26 296.41 452.84 C 296.12 453.42 295.89 454.08 295.72 454.82 C 295.55 455.56 295.47 456.42 295.47 457.41 C 295.47 458.39 295.55 459.25 295.72 459.99 C 295.89 460.73 296.12 461.39 296.41 461.98 C 296.7 462.58 297.09 463.23 297.59 463.96 L 296.76 464.54 C 296.13 463.63 295.64 462.89 295.3 462.32 C 294.97 461.73 294.68 461.04 294.45 460.23 C 294.21 459.41 294.09 458.48 294.09 457.41 C 294.09 456.34 294.21 455.41 294.45 454.59 C 294.68 453.78 294.97 453.09 295.3 452.51 C 295.64 451.93 296.13 451.19 296.76 450.29 Z M 386.25 438.38 C 386.88 438.38 387.45 438.47 387.98 438.66 C 388.51 438.84 388.99 439.1 389.39 439.44 L 388.46 440.88 C 387.76 440.44 387.06 440.21 386.36 440.21 C 386.02 440.21 385.77 440.27 385.59 440.38 C 385.41 440.5 385.32 440.65 385.32 440.86 C 385.32 441.02 385.37 441.16 385.45 441.26 C 385.53 441.36 385.69 441.46 385.93 441.57 C 386.18 441.68 386.56 441.8 387.08 441.96 C 387.97 442.22 388.63 442.55 389.07 442.97 C 389.5 443.38 389.71 443.96 389.71 444.69 C 389.71 445.28 389.55 445.78 389.22 446.2 C 388.89 446.63 388.43 446.96 387.85 447.19 C 387.27 447.41 386.63 447.52 385.92 447.52 C 385.2 447.52 384.54 447.41 383.92 447.19 C 383.3 446.96 382.78 446.64 382.35 446.25 L 383.59 444.85 C 384.3 445.42 385.06 445.7 385.85 445.7 C 386.25 445.7 386.54 445.63 386.77 445.48 C 386.98 445.35 387.1 445.15 387.1 444.89 C 387.1 444.68 387.05 444.52 386.96 444.4 C 386.88 444.29 386.71 444.18 386.47 444.07 C 386.22 443.97 385.82 443.84 385.3 443.69 C 384.45 443.45 383.81 443.09 383.39 442.65 C 382.98 442.21 382.77 441.66 382.77 441 C 382.77 440.51 382.91 440.07 383.19 439.67 C 383.48 439.27 383.89 438.97 384.42 438.73 C 384.95 438.5 385.57 438.38 386.25 438.38 M 379.33 442.06 C 379.3 440.74 378.84 440.09 377.94 440.09 C 377.5 440.09 377.16 440.25 376.92 440.57 C 376.68 440.89 376.53 441.43 376.48 442.17 L 379.33 442.17 Z M 381.82 442.79 C 381.82 443.14 381.8 443.45 381.77 443.71 L 376.48 443.71 C 376.56 444.43 376.77 444.93 377.09 445.23 C 377.41 445.52 377.86 445.66 378.42 445.66 C 378.76 445.66 379.09 445.6 379.42 445.47 C 379.74 445.36 380.09 445.16 380.46 444.91 L 381.52 446.33 C 380.51 447.12 379.4 447.52 378.18 447.52 C 376.8 447.52 375.73 447.11 375 446.29 C 374.25 445.47 373.89 444.38 373.89 443 C 373.89 442.12 374.04 441.34 374.36 440.64 C 374.67 439.94 375.12 439.39 375.71 439 C 376.32 438.59 377.04 438.38 377.88 438.38 C 379.11 438.38 380.07 438.77 380.77 439.54 C 381.47 440.33 381.82 441.4 381.82 442.79 M 371.08 434.13 C 371.52 434.13 371.89 434.26 372.18 434.54 C 372.45 434.81 372.6 435.16 372.6 435.59 C 372.6 436 372.45 436.36 372.18 436.62 C 371.89 436.9 371.52 437.04 371.08 437.04 C 370.64 437.04 370.29 436.9 370.01 436.62 C 369.73 436.36 369.59 436 369.59 435.59 C 369.59 435.16 369.73 434.81 370.01 434.54 C 370.29 434.26 370.64 434.13 371.08 434.13 M 372.38 447.25 L 369.83 447.25 L 369.83 438.66 L 372.38 438.66 Z M 364.28 440.07 C 363.89 440.07 363.57 440.2 363.34 440.45 C 363.11 440.7 362.99 441.05 362.99 441.49 C 362.99 441.95 363.11 442.31 363.34 442.56 C 363.57 442.82 363.89 442.94 364.28 442.94 C 364.7 442.94 365.02 442.82 365.24 442.57 C 365.46 442.33 365.57 441.95 365.57 441.45 C 365.57 440.53 365.14 440.07 364.28 440.07 M 368.84 439.16 C 368.28 439.39 367.45 439.5 366.37 439.5 C 366.93 439.73 367.34 440.03 367.6 440.38 C 367.85 440.71 367.98 441.17 367.98 441.71 C 367.98 442.27 367.84 442.76 367.54 443.2 C 367.26 443.64 366.84 443.98 366.3 444.22 C 365.76 444.47 365.12 444.6 364.4 444.6 C 364.05 444.6 363.73 444.56 363.41 444.5 C 363.32 444.55 363.26 444.61 363.21 444.7 C 363.16 444.79 363.14 444.89 363.14 444.99 C 363.14 445.15 363.2 445.28 363.32 445.37 C 363.45 445.46 363.7 445.5 364.07 445.5 L 365.36 445.5 C 366.01 445.5 366.59 445.61 367.08 445.82 C 367.57 446.04 367.96 446.34 368.22 446.72 C 368.49 447.1 368.63 447.52 368.63 448 C 368.63 448.89 368.24 449.58 367.47 450.09 C 366.71 450.59 365.6 450.84 364.16 450.84 C 363.12 450.84 362.29 450.73 361.69 450.51 C 361.09 450.29 360.67 449.98 360.43 449.57 C 360.18 449.18 360.07 448.68 360.07 448.08 L 362.36 448.08 C 362.36 448.33 362.4 448.54 362.51 448.69 C 362.61 448.84 362.79 448.95 363.06 449.02 C 363.32 449.11 363.71 449.14 364.22 449.14 C 364.92 449.14 365.39 449.06 365.66 448.89 C 365.93 448.73 366.06 448.48 366.06 448.17 C 366.06 447.92 365.96 447.71 365.76 447.55 C 365.55 447.4 365.25 447.33 364.85 447.33 L 363.61 447.33 C 362.72 447.33 362.07 447.17 361.64 446.85 C 361.2 446.54 360.98 446.12 360.98 445.63 C 360.98 445.32 361.07 445.02 361.25 444.71 C 361.44 444.42 361.68 444.18 362 443.98 C 361.46 443.69 361.07 443.35 360.83 442.95 C 360.59 442.56 360.47 442.09 360.47 441.53 C 360.47 440.56 360.81 439.8 361.49 439.23 C 362.18 438.67 363.09 438.38 364.22 438.38 C 365.08 438.41 365.8 438.32 366.39 438.13 C 366.99 437.93 367.61 437.64 368.24 437.27 Z M 355.27 440.26 C 354.75 440.26 354.37 440.48 354.11 440.91 C 353.86 441.36 353.72 442.03 353.72 442.94 C 353.72 443.89 353.85 444.57 354.1 445 C 354.36 445.43 354.75 445.64 355.27 445.64 C 355.79 445.64 356.17 445.43 356.43 445 C 356.69 444.55 356.82 443.88 356.82 442.96 C 356.82 442.02 356.69 441.34 356.44 440.91 C 356.19 440.47 355.79 440.26 355.27 440.26 M 355.27 438.38 C 356.58 438.38 357.61 438.79 358.34 439.59 C 359.08 440.39 359.45 441.52 359.45 442.96 C 359.45 443.88 359.29 444.68 358.95 445.37 C 358.61 446.05 358.12 446.58 357.5 446.96 C 356.87 447.34 356.12 447.52 355.27 447.52 C 353.98 447.52 352.95 447.12 352.21 446.32 C 351.46 445.52 351.09 444.39 351.09 442.94 C 351.09 442.03 351.26 441.23 351.59 440.54 C 351.93 439.86 352.42 439.33 353.04 438.95 C 353.67 438.57 354.41 438.38 355.27 438.38 M 349.14 447.52 C 348.4 447.52 347.83 447.31 347.41 446.89 C 347 446.46 346.8 445.85 346.8 445.07 L 346.8 435.25 L 349.33 434.96 L 349.33 444.97 C 349.33 445.32 349.48 445.5 349.77 445.5 C 349.91 445.5 350.06 445.47 350.18 445.42 L 350.69 447.23 C 350.22 447.43 349.71 447.52 349.14 447.52 M 341.18 440.26 C 340.67 440.26 340.27 440.48 340.02 440.91 C 339.76 441.36 339.64 442.03 339.64 442.94 C 339.64 443.89 339.76 444.57 340.01 445 C 340.27 445.43 340.65 445.64 341.18 445.64 C 341.69 445.64 342.07 445.43 342.34 445 C 342.59 444.55 342.72 443.88 342.72 442.96 C 342.72 442.02 342.59 441.34 342.34 440.91 C 342.09 440.47 341.71 440.26 341.18 440.26 M 341.18 438.38 C 342.48 438.38 343.51 438.79 344.25 439.59 C 344.98 440.39 345.36 441.52 345.36 442.96 C 345.36 443.88 345.19 444.68 344.85 445.37 C 344.51 446.05 344.04 446.58 343.41 446.96 C 342.78 447.34 342.04 447.52 341.18 447.52 C 339.88 447.52 338.86 447.12 338.11 446.32 C 337.37 445.52 336.99 444.39 336.99 442.94 C 336.99 442.03 337.16 441.23 337.5 440.54 C 337.84 439.86 338.32 439.33 338.95 438.95 C 339.57 438.57 340.32 438.38 341.18 438.38 M 333.19 438.38 C 333.94 438.38 334.52 438.61 334.93 439.07 C 335.35 439.52 335.56 440.16 335.56 440.97 L 335.56 447.25 L 333.02 447.25 L 333.02 441.41 C 333.02 440.98 332.95 440.68 332.82 440.51 C 332.68 440.35 332.48 440.26 332.21 440.26 C 331.71 440.26 331.21 440.63 330.74 441.38 L 330.74 447.25 L 328.19 447.25 L 328.19 438.66 L 330.41 438.66 L 330.59 439.68 C 330.95 439.25 331.35 438.92 331.78 438.71 C 332.2 438.49 332.67 438.38 333.19 438.38 M 323.92 438.38 C 324.65 438.38 325.23 438.61 325.66 439.07 C 326.07 439.52 326.28 440.16 326.28 440.97 L 326.28 447.25 L 323.74 447.25 L 323.74 441.41 C 323.74 440.98 323.67 440.68 323.53 440.51 C 323.39 440.35 323.19 440.26 322.93 440.26 C 322.42 440.26 321.93 440.62 321.45 441.36 L 321.45 447.25 L 318.91 447.25 L 318.91 435.25 L 321.45 434.98 L 321.45 439.58 C 321.8 439.18 322.18 438.89 322.58 438.68 C 322.98 438.48 323.43 438.38 323.92 438.38 M 314.9 438.38 C 315.49 438.38 316.02 438.47 316.5 438.64 C 316.97 438.81 317.41 439.07 317.83 439.44 L 316.74 440.96 C 316.2 440.54 315.66 440.34 315.12 440.34 C 314.54 440.34 314.11 440.55 313.83 440.97 C 313.54 441.39 313.39 442.08 313.39 443.01 C 313.39 443.91 313.54 444.55 313.83 444.93 C 314.11 445.31 314.54 445.5 315.08 445.5 C 315.37 445.5 315.64 445.46 315.87 445.37 C 316.1 445.28 316.39 445.12 316.72 444.91 L 317.83 446.5 C 316.98 447.19 316.02 447.52 314.96 447.52 C 314.09 447.52 313.34 447.34 312.7 446.97 C 312.07 446.59 311.58 446.07 311.24 445.39 C 310.89 444.73 310.73 443.93 310.73 443.02 C 310.73 442.12 310.89 441.32 311.24 440.62 C 311.58 439.91 312.07 439.36 312.7 438.98 C 313.34 438.58 314.07 438.38 314.9 438.38 M 307.28 442.06 C 307.26 440.74 306.79 440.09 305.89 440.09 C 305.46 440.09 305.12 440.25 304.88 440.57 C 304.63 440.89 304.49 441.43 304.43 442.17 L 307.28 442.17 Z M 309.78 442.79 C 309.78 443.14 309.76 443.45 309.72 443.71 L 304.43 443.71 C 304.52 444.43 304.72 444.93 305.04 445.23 C 305.37 445.52 305.8 445.66 306.38 445.66 C 306.72 445.66 307.05 445.6 307.38 445.47 C 307.7 445.36 308.05 445.16 308.42 444.91 L 309.46 446.33 C 308.47 447.12 307.36 447.52 306.14 447.52 C 304.75 447.52 303.69 447.11 302.95 446.29 C 302.21 445.47 301.84 444.38 301.84 443 C 301.84 442.12 302 441.34 302.31 440.64 C 302.61 439.94 303.07 439.39 303.67 439 C 304.27 438.59 304.99 438.38 305.83 438.38 C 307.06 438.38 308.03 438.77 308.73 439.54 C 309.43 440.33 309.78 441.4 309.78 442.79 M 302.2 436.04 L 301.93 438.07 L 299.18 438.07 L 299.18 447.25 L 296.55 447.25 L 296.55 438.07 L 293.67 438.07 L 293.67 436.04 Z M 320.78 429.07 C 321.36 429.07 321.8 428.79 322.12 428.24 L 322.12 426.72 L 321.5 426.72 C 320.93 426.72 320.49 426.83 320.21 427.04 C 319.92 427.23 319.78 427.56 319.78 427.98 C 319.78 428.33 319.87 428.59 320.05 428.79 C 320.23 428.97 320.47 429.07 320.78 429.07 M 324.62 428.14 C 324.62 428.46 324.67 428.7 324.76 428.85 C 324.85 428.99 324.99 429.11 325.2 429.18 L 324.67 430.85 C 324.14 430.8 323.71 430.7 323.38 430.5 C 323.05 430.32 322.8 430.01 322.61 429.61 C 322.05 430.47 321.19 430.9 320.04 430.9 C 319.19 430.9 318.51 430.65 318.01 430.16 C 317.51 429.66 317.25 429.01 317.25 428.21 C 317.25 427.27 317.6 426.56 318.28 426.06 C 318.97 425.57 319.96 425.31 321.26 425.31 L 322.12 425.31 L 322.12 424.95 C 322.12 424.44 322.02 424.09 321.8 423.9 C 321.6 423.71 321.22 423.62 320.68 423.62 C 320.4 423.62 320.06 423.66 319.67 423.74 C 319.27 423.82 318.86 423.93 318.44 424.07 L 317.87 422.39 C 318.4 422.19 318.95 422.03 319.52 421.92 C 320.08 421.81 320.6 421.75 321.09 421.75 C 322.3 421.75 323.2 422.01 323.77 422.52 C 324.34 423.03 324.62 423.78 324.62 424.8 Z M 317.17 430.22 C 316.86 430.43 316.5 430.61 316.09 430.72 C 315.67 430.84 315.26 430.9 314.86 430.9 C 312.99 430.88 312.06 429.86 312.06 427.79 L 312.06 423.81 L 310.85 423.81 L 310.85 422.04 L 312.06 422.04 L 312.06 420.17 L 314.6 419.88 L 314.6 422.04 L 316.56 422.04 L 316.29 423.81 L 314.6 423.81 L 314.6 427.76 C 314.6 428.16 314.66 428.44 314.79 428.61 C 314.92 428.79 315.12 428.88 315.4 428.88 C 315.69 428.88 316 428.79 316.32 428.61 Z M 307.89 425.43 C 307.87 424.12 307.41 423.46 306.5 423.46 C 306.07 423.46 305.73 423.62 305.48 423.95 C 305.24 424.27 305.1 424.8 305.04 425.54 L 307.89 425.54 Z M 310.39 426.16 C 310.39 426.51 310.37 426.82 310.33 427.08 L 305.04 427.08 C 305.12 427.8 305.33 428.3 305.65 428.61 C 305.98 428.89 306.43 429.04 306.99 429.04 C 307.33 429.04 307.66 428.97 307.98 428.86 C 308.3 428.73 308.66 428.53 309.03 428.28 L 310.08 429.7 C 309.08 430.5 307.98 430.9 306.75 430.9 C 305.37 430.9 304.3 430.49 303.57 429.67 C 302.82 428.85 302.45 427.75 302.45 426.37 C 302.45 425.5 302.61 424.71 302.92 424.02 C 303.23 423.32 303.68 422.77 304.28 422.37 C 304.88 421.96 305.61 421.75 306.44 421.75 C 307.68 421.75 308.64 422.14 309.34 422.93 C 310.04 423.7 310.39 424.77 310.39 426.16 M 301.77 419.41 L 301.77 421.42 L 296.92 428.5 L 301.84 428.5 L 301.59 430.62 L 293.82 430.62 L 293.82 428.63 L 298.75 421.46 L 294.31 421.46 L 294.31 419.41 Z M 301.77 419.41"/></svg>